<?xml version="1.0" standalone="no"?>
<!DOCTYPE svg PUBLIC "-//W3C//DTD SVG 20010904//EN"
 "http://www.w3.org/TR/2001/REC-SVG-20010904/DTD/svg10.dtd">
<svg version="1.0" xmlns="http://www.w3.org/2000/svg"
 width="179.000000pt" height="282.000000pt" viewBox="0 0 179.000000 282.000000"
 preserveAspectRatio="xMidYMid meet">

<g transform="translate(0.000000,282.000000) scale(0.100000,-0.100000)"
fill="#000000" stroke="none">
<path d="M558 2801 c-83 -27 -138 -62 -201 -130 -61 -66 -99 -138 -116 -219
-6 -31 -11 -158 -11 -306 l0 -253 -42 -12 c-65 -20 -152 -113 -173 -185 -25
-85 -24 -86 105 -86 l110 0 0 -582 c0 -321 4 -611 9 -645 24 -165 154 -312
320 -363 56 -18 93 -20 335 -20 298 0 334 5 432 61 68 38 145 122 184 200 45
88 49 156 50 807 l0 542 116 0 116 0 -7 43 c-17 97 -103 204 -186 229 l-39 11
0 241 c0 133 -4 267 -10 300 -27 168 -157 316 -321 367 -54 17 -93 19 -337 18
-240 0 -285 -3 -334 -18z m512 -741 c97 -13 215 -44 285 -75 50 -22 56 -27 49
-47 -95 -302 -105 -329 -122 -324 -33 11 -259 26 -387 26 -128 0 -354 -15
-387 -26 -14 -4 -26 23 -72 165 -31 93 -56 172 -56 175 0 9 51 33 120 56 152
52 391 73 570 50z m-249 -1247 c176 -3 300 -2 365 6 89 11 100 10 111 -5 7 -9
35 -85 63 -168 l50 -151 -22 -16 c-32 -25 -164 -68 -254 -84 -106 -19 -368
-19 -477 0 -92 16 -249 69 -266 89 -8 9 5 60 45 180 l56 168 32 -6 c17 -4 151
-9 297 -13z"/>
</g>
</svg>
